<svg xmlns="http://www.w3.org/2000/svg" width="1024" height="1024" viewBox="0 0 1024 1024"><path d="M353.206 375.267c4.619-3.742 10.881-11.927 15.707-16.473 60.288-56.799 150.873-72.302 226.661-38.941 12.797 5.633 22.093 13.55 34.43 19.617.573.282 1.676.441 2.925 1.137 3.856 2.969 11.874 9.833 15.199 12.068 2.283-1.378 2.689-1.419 3.668-3.737 6.908 6.055 20.504 17.35 25.884 23.531 29.298 33.663 47.74 78.462 50.706 122.79 4.058 60.659-14.164 115.125-54.035 160.637a215.62 215.62 0 0 1-146.968 72.406 215.9 215.9 0 0 1-160.215-54.83 216.2 216.2 0 0 1-71.831-148.25c-3.518-56.399 14.69-111.283 51.759-154.421 6.417-7.468 10.944-11.661 19.836-15.672-6.314 6.479-10.4 11.712-13.726 20.138m166.763 273.632a4281 4281 0 0 1 43.277-71.575l76.66-126.614c1.477-2.45 3.772-5.023 5.103-7.458 8.735-15.988 19.001-31.123 28.36-46.746 1.732-2.892 4.396-7.075 5.587-10.138-2.064-1.462-6.155-7.666-7.294-10.016-6.932-1.815-32.414-.972-40.384-.323q-11.487-.108-22.973.042c-17.207-1.253-37.453.443-54.878.332-15.567-.099-38.881-2.796-53.834-.682l-.226 4.947c-1.327 22.618-.932 45.411-.964 68.099-.005 3.793-.468 14.793 2.032 17.305 2.756-.724 2.862-5.732 3.179-8.272 3.248-25.019 14.131-46.481 35.693-60.171 28.424-18.048 57.307-19.224 89.69-20.697l2.137.114a7824 7824 0 0 0-111.768 179.867l-34.682 56.906c-5.561 9.01-11.629 17.714-16.844 26.915-1.31 2.311-2.023 6.008-.268 8.22 10.863 1.441 28.375-.158 39.793-.215 4.209-.021 8.551.415 12.604.16m-93.506-271.975c.152 8.696-.924 18.142-.985 27.218l.018 88.409q.396 33.559.042 67.118c-.026 27.183 3.103 65.24-25.014 81.323-7.659 4.381-16.248 6.332-24.856 7.871 26.35-.167 52.237.517 78.417.617 5.706-12.374 17.25-28.282 24.23-40.623-6.638-13.983-5.388-33.042-5.36-48.374l.033-45.626-.082-137.979-.064-.934a736 736 0 0 0-41.49.003c-4.769.141-10.812.08-15.387.573l1.421 1.112c3.035-.426 6.02-.535 9.077-.708"/><path fill="#6d726e" fill-opacity=".267" d="M608.305 376.071q11.487-.15 22.973-.042l-.144 1.017-2.137-.114c-1.851-.982-16.21-.031-20.692-.861"/><path d="M353.206 375.267c4.619-3.742 10.881-11.927 15.707-16.473 60.288-56.799 150.873-72.302 226.661-38.941 12.797 5.633 22.093 13.55 34.43 19.617.573.282 1.676.441 2.925 1.137 3.856 2.969 11.874 9.833 15.199 12.068 5.69 5.144 19.428 17.36 23.534 23.677-6.932-1.815-32.414-.972-40.384-.323q-11.487-.108-22.973.042c-17.207-1.253-37.453.443-54.878.332-15.567-.099-38.881-2.796-53.834-.682l-.226 4.947c-8.481-1.438-17.963-2.981-26.461-3.79l-.064-.934a736 736 0 0 0-41.49.003c-4.769.141-10.812.08-15.387.573-5.673-.316-61.655.201-63.298-.569z"/><path fill="#dedddd" d="M472.842 375.944c4.629.179 22.314.279 26.751-.223l-.226 4.947c-8.481-1.438-17.963-2.981-26.461-3.79z"/><path fill="#dedddd" d="M651.796 348.938c6.908 6.055 20.504 17.35 25.884 23.531 29.298 33.663 47.74 78.462 50.706 122.79 4.058 60.659-14.164 115.125-54.035 160.637a215.62 215.62 0 0 1-146.968 72.406 215.9 215.9 0 0 1-160.215-54.83 216.2 216.2 0 0 1-71.831-148.25c-3.518-56.399 14.69-111.283 51.759-154.421 6.417-7.468 10.944-11.661 19.836-15.672-6.314 6.479-10.4 11.712-13.726 20.138l-.539.684c1.643.77 57.625.253 63.298.569l1.421 1.112c-14.306 3.154-25.553 5.805-38.383 13.277-24.964 14.538-36.314 38.881-38.453 66.858-.163 2.134-.183 6.577-2.339 7.387-2.003-2.155-1.271-17.474-1.325-21.435a2530 2530 0 0 1-.296-46.995c-31.166 50.289-42.651 104.546-29.011 162.778a210.9 210.9 0 0 0 94.889 131.158 208.83 208.83 0 0 0 158.824 25.498c43.784-10.41 79.861-34.461 110.031-67.537-48.544.176-97.9 1.109-146.365-.315 8.418-1.315 24.629-2.002 32.851-2.302 52.633-1.923 101.361-21.334 117.253-76.383.864-2.995 4.587-20.379 6.157-21.287 2.848 2.573 1.758 27.298 1.73 32.406q-.334 26.165.244 52.325a206.72 206.72 0 0 0 35.849-155.483c-4.696-28.835-14.932-55.266-31.056-79.523-1.514-2.278-6.589-10.726-8.228-12.029l-.802.338c-2.064-1.462-6.155-7.666-7.294-10.016-4.106-6.317-17.844-18.533-23.534-23.677 2.283-1.378 2.689-1.419 3.668-3.737"/><path fill="#dedddd" fill-opacity=".882" d="M632.929 340.607c.582-1.537.158-.824 1.799-1.898 4.499-.449 8.481 2.888 11.919 5.674a80 80 0 0 1 5.149 4.555c-.979 2.318-1.385 2.359-3.668 3.737-3.325-2.235-11.343-9.099-15.199-12.068"/></svg>