<?xml version="1.0" encoding="UTF-8"?>
<svg version="1.1" xmlns="http://www.w3.org/2000/svg" width="1024" height="1024" viewBox="256 380 736 290" overflow="hidden">

<path d="M0 0 C4.57756845 2.28878422 6.38771882 11.28258468 8 16 C14.00082498 35.90679578 11.74271952 56.10474035 2.19848633 74.4597168 C-6.984173 91.20481275 -21.3993178 102.96597958 -39 110 C-39.598125 110.515625 -40.19625 111.03125 -40.8125 111.5625 C-44.08556547 113.71337159 -47.1204668 113.67670557 -51 114 C-51 114.66 -51 115.32 -51 116 C-54.63 116 -58.26 116 -62 116 C-62.33 116.66 -62.66 117.32 -63 118 C-65.50225135 118.77464557 -67.95845345 119.44926446 -70.5 120.0625 C-75.11836214 120.85089627 -75.11836214 120.85089627 -79 123 C-89.45076587 125.01891401 -99.88982635 125.30294967 -110.49873352 125.33552551 C-113.16738228 125.34398337 -115.83571534 125.36463471 -118.50427246 125.38806152 C-125.12568349 125.44380181 -131.74717204 125.47947965 -138.36871338 125.51568604 C-143.98917425 125.54720712 -149.60947911 125.58660058 -155.22981262 125.63594055 C-157.83011187 125.65567225 -160.43028209 125.66425652 -163.03063965 125.67224121 C-186.9179819 125.82499245 -207.89647532 130.02901784 -225.94921875 146.86328125 C-243.27874482 164.91899698 -247.54677547 189.25214157 -251 213 C-251.33 213 -251.66 213 -252 213 C-251.94779297 211.64455078 -251.94779297 211.64455078 -251.89453125 210.26171875 C-251.86746094 209.08222656 -251.84039063 207.90273438 -251.8125 206.6875 C-251.76029297 204.92986328 -251.76029297 204.92986328 -251.70703125 203.13671875 C-251.6954813 200.0148405 -251.6954813 200.0148405 -253.50390625 198.234375 C-253.99761719 197.82703125 -254.49132812 197.4196875 -255 197 C-255.125 194.5625 -255.125 194.5625 -255 192 C-255.83023488 187.97147392 -257.16418294 184.0529482 -258.375 180.125 C-258.58382812 179.43019531 -258.79265625 178.73539063 -259.0078125 178.01953125 C-260.02671526 174.72052291 -261.10937405 171.7817654 -262.6640625 168.6796875 C-264 166 -264 166 -264 163 C-264.58394531 162.77441406 -265.16789063 162.54882812 -265.76953125 162.31640625 C-268.63176079 160.62713943 -269.83963493 158.69186492 -271.6875 155.9375 C-283.72831539 138.9829695 -299.6172281 130.28435012 -319.77734375 126.61328125 C-328.96164027 125.18231655 -338.16443693 124.83436748 -347.4453125 124.71875 C-348.61343475 124.70034058 -349.78155701 124.68193115 -350.9850769 124.66296387 C-354.69833791 124.60474766 -358.41164486 124.55183679 -362.125 124.5 C-376.37499211 124.29699785 -390.61825633 124.07414065 -404.859375 123.51171875 C-405.88056427 123.47175781 -406.90175354 123.43179688 -407.95388794 123.390625 C-428.59859916 122.51889223 -448.89412508 118.15583339 -467 108 C-469.14161438 106.94968673 -471.28734238 105.90771117 -473.4375 104.875 C-477.98861419 102.59030412 -482.09588875 100.28300264 -486 97 C-486 96.01 -486 95.02 -486 94 C-486.99 94 -487.98 94 -489 94 C-489 93.01 -489 92.02 -489 91 C-490.051875 90.7215625 -490.051875 90.7215625 -491.125 90.4375 C-500.99811749 85.50094125 -507.00553982 71.93623977 -510.4296875 61.984375 C-516.20838871 43.91816126 -515.6959907 25.44145719 -508 8 C-507.30859478 5.22111387 -507.30859478 5.22111387 -507 3 C-506.67 3 -506.34 3 -506 3 C-505.85304688 4.90458984 -505.85304688 4.90458984 -505.703125 6.84765625 C-504.04250449 26.63800467 -499.96630734 42.45723418 -487 58 C-486.23429687 58.97582031 -485.46859375 59.95164062 -484.6796875 60.95703125 C-482.05150304 64.09632023 -479.03090005 66.53261507 -475.6875 68.875 C-474.77726074 69.51344849 -474.77726074 69.51344849 -473.84863281 70.16479492 C-457.87494437 81.07390366 -440.21454079 86.95873239 -421 89 C-419.89412033 89.12198257 -419.89412033 89.12198257 -418.76589966 89.24642944 C-409.63556779 90.13689346 -400.53159901 90.16524246 -391.36745453 90.19923019 C-388.42160255 90.2111924 -385.47588615 90.23068525 -382.53009033 90.25234985 C-374.16252246 90.31339553 -365.79497363 90.36786974 -357.42724609 90.40136719 C-352.28447396 90.42249341 -347.14195954 90.45792798 -341.99933624 90.50212479 C-340.05883087 90.51613257 -338.11828003 90.52497213 -336.17772675 90.52817917 C-311.37362896 90.57352147 -285.83782703 94.73056925 -267.28515625 112.6328125 C-257.05315119 123.23212031 -257.05315119 123.23212031 -254.37109375 127.734375 C-253.20181762 130.12145382 -253.20181762 130.12145382 -251 131 C-250.73445313 130.26394531 -250.46890625 129.52789062 -250.1953125 128.76953125 C-243.85798487 114.08598455 -228.46467843 103.7295031 -214.4375 97.1875 C-206.41024223 94.04403456 -197.77248995 92.82330608 -189.30493164 91.40136719 C-187.83523058 91.14544212 -186.37222509 90.84417079 -184.92434692 90.48477173 C-180.90744823 89.81888667 -176.97071783 89.84726189 -172.90551758 89.84228516 C-171.99735794 89.83720444 -171.0891983 89.83212372 -170.15351868 89.82688904 C-168.1832608 89.81620324 -166.21299093 89.80757607 -164.24271584 89.80076981 C-161.10784858 89.78892388 -157.97311559 89.76945089 -154.83830261 89.74765015 C-145.92520742 89.68626579 -137.01212344 89.63227261 -128.09887695 89.59863281 C-122.63998108 89.5774806 -117.18132668 89.54200698 -111.72257042 89.49787521 C-109.65811732 89.48386517 -107.59362145 89.47502734 -105.52912331 89.47182083 C-86.78832726 89.43966434 -69.69135932 87.29151314 -52 81 C-50.93007813 80.61972656 -49.86015625 80.23945313 -48.7578125 79.84765625 C-27.72597191 71.73537488 -14.06162197 56.87438515 -4.82617188 36.91064453 C-3.39312042 33.5965013 -2.35400215 30.21885621 -1.47265625 26.72265625 C-1 25 -1 25 0 24 C0.08726223 22.21928754 0.10699041 20.4351686 0.09765625 18.65234375 C0.09443359 17.57275391 0.09121094 16.49316406 0.08789062 15.38085938 C0.07951172 14.24455078 0.07113281 13.10824219 0.0625 11.9375 C0.05573242 10.22723633 0.05573242 10.22723633 0.04882812 8.48242188 C0.03699747 5.65489649 0.0205141 2.8274736 0 0 Z " fill="#97724A" transform="translate(772,380)"/>
<path d="M0 0 C9.15207115 5.15303881 14.70714276 11.3428076 18.1328125 21.2890625 C19.09354429 25.40030216 19.34574719 29.11005534 19.3125 33.3125 C19.30686035 34.06015625 19.3012207 34.8078125 19.29541016 35.578125 C19.07957858 45.44226928 16.45663592 53.39454822 10 61 C5.44426826 65.3242413 1.13198509 67.72250311 -5 69 C-2.14759078 74.32769703 1.1184972 78.81984011 5 83.4375 C11.61020827 91.42550667 17.84414194 99.65908963 24 108 C20.4937557 109.1687481 17.3522134 109.12514267 13.70703125 109.09765625 C12.64798836 109.09553383 12.64798836 109.09553383 11.56755066 109.09336853 C9.31582374 109.08777764 7.06419679 109.07522688 4.8125 109.0625 C3.28450665 109.05748382 1.75651173 109.05292112 0.22851562 109.04882812 C-3.51436135 109.0378112 -7.25716373 109.02055287 -11 109 C-11 108.34 -11 107.68 -11 107 C-11.66 107 -12.32 107 -13 107 C-17 101.58823529 -17 101.58823529 -17 99 C-18.485 98.505 -18.485 98.505 -20 98 C-20.95054747 96.67602317 -21.88829303 95.34047487 -22.75 93.95703125 C-24.89512078 90.59857652 -27.27880395 87.40333907 -29.609375 84.171875 C-31 82 -31 82 -31 80 C-31.99 79.67 -32.98 79.34 -34 79 C-37 75.55555556 -37 75.55555556 -37 73 C-42.94 73 -48.88 73 -55 73 C-55 85.21 -55 97.42 -55 110 C-69.85 109.505 -69.85 109.505 -85 109 C-85 84.25 -85 59.5 -85 34 C-75.1 34 -65.2 34 -55 34 C-55 38.95 -55 43.9 -55 49 C-50.12488014 48.90280454 -45.25055932 48.79991484 -40.37597656 48.68261719 C-38.71947444 48.6444549 -37.06289305 48.60958025 -35.40625 48.578125 C-33.01794199 48.532196 -30.63017368 48.47424963 -28.2421875 48.4140625 C-27.14026566 48.39673569 -27.14026566 48.39673569 -26.01608276 48.37905884 C-21.67100995 48.25577087 -18.00788968 47.7135346 -14 46 C-11.09391498 41.77296725 -11.23438759 35.93306965 -12 31 C-13.64197453 27.55396762 -15.92201041 25.5157708 -19.39111328 23.85595703 C-24.79510503 22.57423635 -30.08338058 22.75595139 -35.6171875 22.8046875 C-36.82948029 22.8075174 -38.04177307 22.81034729 -39.290802 22.81326294 C-43.15230289 22.82443333 -47.01356953 22.84953263 -50.875 22.875 C-53.49739248 22.88503384 -56.1197886 22.89415898 -58.7421875 22.90234375 C-65.16153789 22.92436242 -71.5807522 22.95780902 -78 23 C-71.67499451 9.69029358 -58.55478427 0.96995488 -45.1875 -4.05786133 C-31.54529007 -8.09012911 -12.59817412 -6.52944459 0 0 Z " fill="#343434" transform="translate(623,522)"/>
<path d="M0 0 C1.35448242 -0.01160156 1.35448242 -0.01160156 2.73632812 -0.0234375 C16.62790238 0.01679878 29.22437568 4.97467351 39.5625 14.25 C40.26246094 14.86875 40.96242188 15.4875 41.68359375 16.125 C50.05075588 23.97020306 54.61869054 33.60915561 58.5625 44.25 C58.81128906 44.91386719 59.06007813 45.57773437 59.31640625 46.26171875 C63.66403983 60.27751651 59.96066721 75.5007546 53.52856445 88.16455078 C50.35543765 94.01849291 46.37489965 98.69088454 41.5625 103.25 C40.53189453 104.23613281 40.53189453 104.23613281 39.48046875 105.2421875 C33.30385149 110.58226847 26.30188725 112.93270978 18.5625 115.25 C17.38880859 115.62125 17.38880859 115.62125 16.19140625 116 C0.39168488 120.30086933 -15.24809469 116.56536422 -29.05078125 108.67578125 C-30.23220703 107.97001953 -30.23220703 107.97001953 -31.4375 107.25 C-31.4375 106.59 -31.4375 105.93 -31.4375 105.25 C-31.994375 105.023125 -32.55125 104.79625 -33.125 104.5625 C-36.09003447 102.8796426 -38.09103689 100.71378626 -40.4375 98.25 C-41.200625 97.528125 -41.96375 96.80625 -42.75 96.0625 C-44.4375 94.25 -44.4375 94.25 -44.4375 92.25 C-45.0975 92.25 -45.7575 92.25 -46.4375 92.25 C-53.75176523 78.68665379 -58.82832418 64.3642802 -55.04296875 48.8671875 C-54.07171195 44.66885167 -53.57590099 40.40065016 -53 36.1328125 C-52.4375 33.25 -52.4375 33.25 -50.4375 29.25 C-36.9075 29.25 -23.3775 29.25 -9.4375 29.25 C-13.4375 32.25 -13.4375 32.25 -15.40234375 33.57421875 C-22.42745115 38.42919396 -26.12710415 44.03302692 -28.4375 52.25 C-29.64901471 62.52457666 -28.47227727 70.72956076 -22.4375 79.25 C-17.24537417 85.13440928 -11.11897548 89.16435972 -3.16796875 89.71875 C-1.65398435 89.75241977 -0.13930962 89.76219794 1.375 89.75 C2.16672607 89.74645508 2.95845215 89.74291016 3.77416992 89.73925781 C12.54436058 89.49117207 19.14900682 86.24971942 25.5625 80.25 C25.8925 79.59 26.2225 78.93 26.5625 78.25 C27.5525 77.92 28.5425 77.59 29.5625 77.25 C34.50883036 68.73040088 35.17155672 58.40445659 32.71484375 49.0078125 C28.66769059 38.22455017 21.11252399 29.73072342 10.65625 24.91015625 C-1.43076481 19.94584659 -13.21838671 18.94990472 -26.1875 18.625 C-27.46882813 18.58632813 -28.75015625 18.54765625 -30.0703125 18.5078125 C-33.1925747 18.41461064 -36.31484693 18.3288031 -39.4375 18.25 C-39.4375 17.26 -39.4375 16.27 -39.4375 15.25 C-28.41249438 5.05666792 -14.83593108 -0.12653246 0 0 Z " fill="#614429" transform="translate(444.4375,516.75)"/>
<path d="M0 0 C0.46148438 0.39058594 0.92296875 0.78117188 1.3984375 1.18359375 C1.3984375 1.84359375 1.3984375 2.50359375 1.3984375 3.18359375 C2.00300781 3.250625 2.60757813 3.31765625 3.23046875 3.38671875 C6.27901249 4.50726456 6.7280323 6.03787162 8.0859375 8.93359375 C8.50230469 9.7946875 8.91867187 10.65578125 9.34765625 11.54296875 C12.52479302 19.52714888 12.77509887 29.33585534 9.8984375 37.43359375 C5.78684698 46.21355268 -0.1084785 52.04127935 -9.25390625 55.37109375 C-17.94104865 57.47952504 -27.21792732 57.44911644 -35.390625 53.56640625 C-42.58051166 49.06955134 -48.30517631 42.41672026 -50.6015625 34.18359375 C-51.80994294 25.27483664 -51.83297294 15.81273398 -46.6015625 8.18359375 C-46.1271875 7.49007812 -45.6528125 6.7965625 -45.1640625 6.08203125 C-33.26007807 -9.19856414 -15.47288181 -9.81580051 0 0 Z " fill="#1D1D1D" transform="translate(731.6015625,549.81640625)"/>
<path d="M0 0 C7.67700887 -0.07018549 15.35398359 -0.1231532 23.03124237 -0.15543652 C26.59793099 -0.17094797 30.16439667 -0.19191225 33.73095703 -0.22631836 C60.34635363 -0.47607567 84.09214124 0.21464551 104.6796875 19.51171875 C106.82577232 21.64108952 108.93244072 23.79460344 111 26 C110 29 110 29 108.4375 30.375 C104.51697859 31.3802619 101.42017409 29.84961976 98 28 C96.88463181 27.10084976 95.80085066 26.16127115 94.75 25.1875 C86.10200419 17.19707069 73.80121955 12.83977839 62.1640625 12.90234375 C60.56884766 12.90717773 60.56884766 12.90717773 58.94140625 12.91210938 C57.29978516 12.92467773 57.29978516 12.92467773 55.625 12.9375 C54.50738281 12.94201172 53.38976562 12.94652344 52.23828125 12.95117188 C49.49213196 12.96290756 46.74609414 12.97932637 44 13 C43.40267181 10.23735711 43 7.83967231 43 5 C40.17045475 3.74865147 40.17045475 3.74865147 37.9375 4.5625 C36.9784375 4.7790625 36.9784375 4.7790625 36 5 C35.34 4.34 34.68 3.68 34 3 C30.40320934 3.32326553 30.40320934 3.32326553 27 4 C27 3.34 27 2.68 27 2 C25.35 2.66 23.7 3.32 22 4 C21.67 3.67 21.34 3.34 21 3 C20.67 3.66 20.34 4.32 20 5 C19.34 4.67 18.68 4.34 18 4 C14.23375329 2.74458443 12.62811066 3.62938042 9 5 C8.608125 4.484375 8.21625 3.96875 7.8125 3.4375 C7.214375 2.963125 6.61625 2.48875 6 2 C3.34533951 2.23043864 3.34533951 2.23043864 1 3 C0.67 2.01 0.34 1.02 0 0 Z " fill="#141411" transform="translate(387,505)"/>
<path d="M0 0 C0.66 0 1.32 0 2 0 C2.51046875 1.17755859 2.51046875 1.17755859 3.03125 2.37890625 C8.05320028 13.26425062 13.78827324 18.82155554 25 23 C25 23.66 25 24.32 25 25 C24.21496094 25.3403125 23.42992187 25.680625 22.62109375 26.03125 C11.73574938 31.05320028 6.17844446 36.78827324 2 48 C1.34 48 0.68 48 0 48 C-0.3403125 47.21496094 -0.680625 46.42992187 -1.03125 45.62109375 C-6.05320028 34.73574938 -11.78827324 29.17844446 -23 25 C-23 24.34 -23 23.68 -23 23 C-22.21496094 22.6596875 -21.42992187 22.319375 -20.62109375 21.96875 C-9.73574938 16.94679972 -4.17844446 11.21172676 0 0 Z " fill="#878786" transform="translate(967,944)"/>
<path d="M0 0 C1.19667297 0.0697403 2.39334595 0.13948059 3.62628174 0.21133423 C15.24931912 0.85833913 26.83846636 1.1551096 38.47838593 1.19923019 C41.3912712 1.2113296 44.30402757 1.23084132 47.21685791 1.25234985 C55.48192998 1.31300176 63.74697527 1.36799609 72.01220703 1.40136719 C77.11233225 1.42248606 82.2121971 1.45789473 87.31217194 1.50212479 C89.23034838 1.51611476 91.14857057 1.52496793 93.06679535 1.52817917 C117.78231236 1.57400345 143.23953453 5.80521863 161.71484375 23.6328125 C173.24064784 35.5723634 173.24064784 35.5723634 176 41 C175.67 41.66 175.34 42.32 175 43 C174.278125 42.113125 173.55625 41.22625 172.8125 40.3125 C171.12710418 38.28623761 169.43194917 36.43194917 167.5625 34.5625 C165.62091834 32.62091834 164.00510183 30.75977028 162.3125 28.625 C157.61009989 23.1005865 151.62467104 18.31130646 144.4375 16.75 C143.303125 16.5025 142.16875 16.255 141 16 C140.67 15.01 140.34 14.02 140 13 C134.05970781 9.97243456 127.62916858 8.36828714 121 8 C120.67 8.33 120.34 8.66 120 9 C117.66702567 9.04092937 115.33294775 9.04241723 113 9 C113 8.01 113 7.02 113 6 C103.3170137 5.1642087 93.78521672 4.89853559 84.06640625 5.0078125 C82.65852954 5.01735638 81.25064611 5.02594821 79.84275818 5.03366089 C73.96005872 5.06656159 68.07751821 5.10737173 62.19506836 5.17138672 C46.18798755 5.33953686 30.3485297 5.14526711 14.40234375 3.6171875 C13.7234717 3.55420597 13.04459965 3.49122444 12.34515572 3.42633438 C4.08172242 2.6397474 4.08172242 2.6397474 1 2 C0.67 1.34 0.34 0.68 0 0 Z " fill="#E0C495" transform="translate(343,469)"/>
<path d="M0 0 C1.35448242 -0.01160156 1.35448242 -0.01160156 2.73632812 -0.0234375 C16.62790238 0.01679878 29.22437568 4.97467351 39.5625 14.25 C40.26246094 14.86875 40.96242188 15.4875 41.68359375 16.125 C50.05075588 23.97020306 54.61869054 33.60915561 58.5625 44.25 C58.81128906 44.91386719 59.06007813 45.57773437 59.31640625 46.26171875 C61.36315299 52.85997223 61.12952313 60.42904534 60.5625 67.25 C59.9025 67.91 59.2425 68.57 58.5625 69.25 C58.54832031 68.29222656 58.53414063 67.33445312 58.51953125 66.34765625 C58.10541325 52.46501122 55.57322942 37.3578557 46.5625 26.25 C45.26176655 25.207949 43.93141366 24.20071193 42.5625 23.25 C40.70323927 21.60526935 39.65746266 20.45891785 38.625 18.1875 C37.27586427 15.72731131 36.18313074 15.1749285 33.5625 14.25 C32.2425 14.25 30.9225 14.25 29.5625 14.25 C29.5625 13.26 29.5625 12.27 29.5625 11.25 C23.76262445 6.8310472 19.04318001 6.91653702 11.8671875 7.20703125 C8.89566179 7.24566811 6.43404342 6.95975885 3.5625 6.25 C4.2225 5.26 4.8825 4.27 5.5625 3.25 C-10.8470226 2.58237116 -10.8470226 2.58237116 -25.4375 9.25 C-28.6875 9.9375 -28.6875 9.9375 -31.4375 10.25 C-29.016042 7.48146635 -26.53001073 6.17669123 -23.1875 4.6875 C-22.27484375 4.27371094 -21.3621875 3.85992188 -20.421875 3.43359375 C-13.4291949 0.66031879 -7.43924486 -0.06344772 0 0 Z " fill="#BA9569" transform="translate(444.4375,516.75)"/>
<path d="M0 0 C2.10419407 0.00561184 4.20839212 0.0098744 6.31259155 0.01286316 C11.7869393 0.02418711 17.26103913 0.05354348 22.73529053 0.0869751 C28.34693043 0.11794814 33.95861132 0.13142604 39.5703125 0.14648438 C50.53396167 0.17842807 61.49742878 0.22946908 72.4609375 0.29296875 C72.1309375 0.95296875 71.8009375 1.61296875 71.4609375 2.29296875 C68.06735674 3.22669365 64.84102553 3.41916138 61.33520508 3.42236328 C60.34100052 3.42551544 59.34679596 3.4286676 58.32246399 3.43191528 C56.73005135 3.42887894 56.73005135 3.42887894 55.10546875 3.42578125 C53.45849251 3.42721634 53.45849251 3.42721634 51.77824402 3.42868042 C49.46259504 3.42935981 47.14694413 3.42752232 44.83129883 3.42333984 C41.27616133 3.41797286 37.72114928 3.42330089 34.16601562 3.4296875 C31.91666639 3.42902698 29.66731723 3.42774635 27.41796875 3.42578125 C26.35028763 3.42780548 25.28260651 3.42982971 24.18257141 3.43191528 C23.19782333 3.42876312 22.21307526 3.42561096 21.19848633 3.42236328 C19.89540276 3.42116989 19.89540276 3.42116989 18.56599426 3.41995239 C16.4609375 3.29296875 16.4609375 3.29296875 14.4609375 2.29296875 C14.1309375 2.95296875 13.8009375 3.61296875 13.4609375 4.29296875 C13.4609375 3.63296875 13.4609375 2.97296875 13.4609375 2.29296875 C12.61619873 2.53853516 12.61619873 2.53853516 11.75439453 2.7890625 C9.33740467 3.32011073 7.23726276 3.39112451 4.765625 3.35546875 C3.44498047 3.34386719 3.44498047 3.34386719 2.09765625 3.33203125 C1.18628906 3.31914062 0.27492188 3.30625 -0.6640625 3.29296875 C-2.47910772 3.2675123 -4.29422173 3.24646129 -6.109375 3.23046875 C-6.91133301 3.21886719 -7.71329102 3.20726562 -8.53955078 3.1953125 C-10.61287191 3.16193624 -10.61287191 3.16193624 -12.5390625 4.29296875 C-12.5390625 3.63296875 -12.5390625 2.97296875 -12.5390625 2.29296875 C-13.5290625 2.62296875 -14.5190625 2.95296875 -15.5390625 3.29296875 C-17.2884948 3.33754027 -19.03949928 3.33206513 -20.7890625 3.29296875 C-25.17864429 3.25803839 -29.24480851 3.35943527 -33.5390625 4.29296875 C-33.8690625 4.95296875 -34.1990625 5.61296875 -34.5390625 6.29296875 C-36.58725299 6.68854202 -38.65505137 6.98469624 -40.7265625 7.23046875 C-45.64523136 7.90611008 -49.34605243 8.65736242 -53.5390625 11.29296875 C-53.5390625 10.30296875 -53.5390625 9.31296875 -53.5390625 8.29296875 C-36.15101235 0.52057177 -18.76335193 -0.14938491 0 0 Z " fill="#D0AC7F" transform="translate(607.5390625,470.70703125)"/>
<path d="M0 0 C-2.66457245 1.37265854 -5.00107987 2.3269572 -7.9375 2.9375 C-10.7543352 3.58030284 -12.24305685 4.15467254 -14.75 5.75 C-15.4925 6.1625 -16.235 6.575 -17 7 C-19 6.125 -19 6.125 -21 5 C-22.67004829 5.31595508 -24.33637583 5.65179959 -26 6 C-28.34148732 5.72982839 -30.67504723 5.38749213 -33 5 C-34.64475427 4.80325906 -36.29065399 4.61588677 -37.9375 4.4375 C-38.70964844 4.35371094 -39.48179687 4.26992188 -40.27734375 4.18359375 C-41.13005859 4.09271484 -41.13005859 4.09271484 -42 4 C-42.33 4.66 -42.66 5.32 -43 6 C-43.66 6 -44.32 6 -45 6 C-45.495 5.01 -45.495 5.01 -46 4 C-47.98 4.33 -49.96 4.66 -52 5 C-52 4.34 -52 3.68 -52 3 C-52.59425781 3.0721875 -53.18851563 3.144375 -53.80078125 3.21875 C-59.46717931 3.85324558 -64.95288274 4.04486033 -70.65234375 3.83984375 C-73.27321371 3.82335448 -73.27321371 3.82335448 -76 6 C-76.66 5.34 -77.32 4.68 -78 4 C-79.671549 4.30791692 -81.33805547 4.64386903 -83 5 C-85.125 4.5625 -85.125 4.5625 -87 4 C-87.99 4 -88.98 4 -90 4 C-89.67 3.01 -89.34 2.02 -89 1 C-79.16770764 0.86868038 -69.33540419 0.73822718 -59.50308609 0.60884857 C-54.93645928 0.54873203 -50.36983666 0.48832865 -45.80322266 0.42724609 C-41.38767125 0.36819508 -36.9721101 0.30992842 -32.55654144 0.25218201 C-30.88063953 0.23013139 -29.20474117 0.20780875 -27.52884674 0.18519592 C-18.35200728 0.06156195 -9.17795256 -0.03543937 0 0 Z " fill="#070705" transform="translate(690,504)"/>
<path d="M0 0 C1.7072816 1.1802183 3.3966211 2.3870286 5.0625 3.625 C5.76761719 4.13546875 6.47273437 4.6459375 7.19921875 5.171875 C18.65293668 14.26284169 25.8213948 28.31299157 28.0625 42.625 C28.67234237 50.83287848 28.22806138 58.35527768 26.25 66.3125 C26.0847583 66.98321533 25.9195166 67.65393066 25.74926758 68.3449707 C24.7568379 72.01158971 23.58532633 74.76965215 21.0625 77.625 C21.66995496 74.30197193 22.50440769 71.2058069 23.59375 68.01171875 C25.28234493 62.44656291 25.60113051 57.22865298 25.5625 51.4375 C25.55391968 49.93183472 25.55391968 49.93183472 25.54516602 48.39575195 C25.15050568 31.82666181 18.5258097 19.14889678 6.55859375 7.7265625 C-4.97658927 -1.98537563 -19.91348615 -6.55797175 -34.9375 -6.375 C-43.86931078 -5.59780094 -52.39811665 -2.97723812 -60.9375 -0.375 C-60.9375 -1.035 -60.9375 -1.695 -60.9375 -2.375 C-41.2120661 -12.12168499 -18.86748648 -11.38732494 0 0 Z " fill="#4E4E4E" transform="translate(743.9375,524.375)"/>
<path d="M0 0 C34.65 0 69.3 0 105 0 C105 8.58 105 17.16 105 26 C104.34 26 103.68 26 103 26 C102.67 18.08 102.34 10.16 102 2 C100.68 2.33 99.36 2.66 98 3 C96.33025276 2.6824578 94.66400427 2.3463794 93 2 C90.42165353 1.91756808 87.87224616 1.88358082 85.29492188 1.90234375 C84.15472092 1.90453415 84.15472092 1.90453415 82.9914856 1.9067688 C81.34532519 1.9105649 79.69916883 1.916671 78.05302429 1.92483521 C75.43626083 1.93765922 72.81954845 1.94413107 70.20275879 1.94897461 C63.69719824 1.96231279 57.19168572 1.986387 50.68615723 2.01037598 C45.19519817 2.03024214 39.70425805 2.04583294 34.21327209 2.05593872 C31.65610337 2.06234382 29.09901363 2.07485631 26.54187012 2.08764648 C17.63614056 2.11516095 8.87106147 1.87716755 0 1 C0 0.67 0 0.34 0 0 Z " fill="#363636" transform="translate(281,518)"/>
<path d="M0 0 C13.53 0 27.06 0 41 0 C37 3 37 3 35.03515625 4.32421875 C28.01004885 9.17919396 24.31039585 14.78302692 22 23 C20.6509577 34.44091646 22.75072812 42.79751067 29.51171875 52.07421875 C30.61643737 53.432168 31.79803037 54.72732628 33 56 C26.62306516 53.12763064 23.22516206 48.19303951 20.625 41.8125 C17.46288794 32.04597668 18.27735037 23.97904507 22.5625 14.71484375 C24.45068756 11.14883734 26.40047717 8.09132445 29 5 C29.66 5 30.32 5 31 5 C31 4.34 31 3.68 31 3 C16.15 2.505 16.15 2.505 1 2 C0.67 1.34 0.34 0.68 0 0 Z " fill="#93714C" transform="translate(394,546)"/>
<path d="M0 0 C9.9 0 19.8 0 30 0 C30 4.95 30 9.9 30 15 C42.87 14.67 55.74 14.34 69 14 C65.74943672 17.25056328 62.77166474 17.11895504 58.34945679 17.13894653 C57.22901474 17.13591019 57.22901474 17.13591019 56.0859375 17.1328125 C55.31569244 17.13376923 54.54544739 17.13472595 53.75186157 17.13571167 C52.12624022 17.13639151 50.50061613 17.13455088 48.875 17.13037109 C46.37754279 17.12500546 43.88026423 17.13033015 41.3828125 17.13671875 C39.8046871 17.13605822 38.22656181 17.13477758 36.6484375 17.1328125 C35.89742767 17.13483673 35.14641785 17.13686096 34.37265015 17.13894653 C29.11496122 17.11496122 29.11496122 17.11496122 28 16 C27.92728259 13.64686445 27.91629132 11.29166332 27.9375 8.9375 C27.94652344 7.64714844 27.95554687 6.35679687 27.96484375 5.02734375 C27.97644531 4.02832031 27.98804688 3.02929688 28 2 C27.04738281 2.16242187 26.09476563 2.32484375 25.11328125 2.4921875 C20.47142243 3.15380727 15.86844122 3.14658774 11.1875 3.125 C10.32962891 3.12886719 9.47175781 3.13273438 8.58789062 3.13671875 C7.76869141 3.13542969 6.94949219 3.13414062 6.10546875 3.1328125 C5.36449951 3.13168457 4.62353027 3.13055664 3.86010742 3.12939453 C2 3 2 3 0 2 C0 1.34 0 0.68 0 0 Z " fill="#525252" transform="translate(538,556)"/>
<path d="M0 0 C3.8917522 -0.12574008 7.78268232 -0.2153157 11.67602539 -0.2746582 C13.63405039 -0.31149445 15.59151427 -0.37510037 17.54882812 -0.43945312 C29.41340942 -0.590402 39.85910187 2.21510158 49.0625 9.98046875 C56.40755863 17.63650768 59.31090299 26.43398119 59.125 36.9375 C59.11597656 37.62134766 59.10695313 38.30519531 59.09765625 39.00976562 C59.07438958 40.67333287 59.03853167 42.33671631 59 44 C58.67 44 58.34 44 58 44 C57.89042969 43.10539063 57.78085937 42.21078125 57.66796875 41.2890625 C55.61636948 24.64320208 55.61636948 24.64320208 46.16796875 11.37890625 C32.7117696 1.36789352 15.9764162 2.2182879 0 2 C0 1.34 0 0.68 0 0 Z " fill="#646564" transform="translate(583,518)"/>
<path d="M0 0 C1.49128418 0.08979126 1.49128418 0.08979126 3.01269531 0.18139648 C20.70741961 1.18175958 38.42527631 1.54502419 56.14044189 1.99578857 C60.53247573 2.10806768 64.92443723 2.22310893 69.31640625 2.33789062 C77.8775372 2.56123736 86.43874117 2.78161037 95 3 C95.495 3.99 95.495 3.99 96 5 C88.19088321 5.07097685 80.38184837 5.12353119 72.57248592 5.15543652 C68.94232872 5.17078538 65.31239915 5.19142132 61.68237305 5.22631836 C45.86085778 5.37418834 30.20173674 5.1202842 14.44140625 3.61328125 C13.76164167 3.55041616 13.0818771 3.48755108 12.3815136 3.42278099 C4.08269411 2.63606398 4.08269411 2.63606398 1 2 C0.67 1.34 0.34 0.68 0 0 Z " fill="#BC966A" transform="translate(343,469)"/>
<path d="M0 0 C5.44136469 1.53038382 9.02350331 5.17814485 13 9 C13.67546875 9.63808594 14.3509375 10.27617188 15.046875 10.93359375 C26.79238279 22.9750155 31.35080782 39.4847644 31.30078125 55.91015625 C31 59 31 59 29 61 C28.98582031 60.04222656 28.97164063 59.08445312 28.95703125 58.09765625 C28.54291325 44.21501122 26.01072942 29.1078557 17 18 C15.69926655 16.957949 14.36891366 15.95071193 13 15 C11.22287325 13.42792634 10.13701281 12.30892511 9.171875 10.1328125 C7.76510076 7.57248338 6.12051708 6.16766733 3.875 4.3125 C2.56804553 3.226472 1.27185873 2.12692599 0 1 C0 0.67 0 0.34 0 0 Z " fill="#D6B486" transform="translate(474,525)"/>
<path d="M0 0 C0.66 0.33 1.32 0.66 2 1 C1.57589844 1.38929688 1.15179687 1.77859375 0.71484375 2.1796875 C-10.92783047 13.28500753 -18.53154274 26.90855405 -19.07275391 43.18847656 C-19.15792017 48.12812 -19.1053322 53.06109 -19 58 C-19.99 58 -20.98 58 -22 58 C-26.01362737 42.40651528 -21.23051024 28.85847797 -14 15 C-13.34 15 -12.68 15 -12 15 C-11.77570312 14.28457031 -11.55140625 13.56914063 -11.3203125 12.83203125 C-9.70390489 9.36488474 -7.6259455 7.3326399 -4.875 4.6875 C-3.96492187 3.80449219 -3.05484375 2.92148437 -2.1171875 2.01171875 C-1.41851563 1.34785156 -0.71984375 0.68398438 0 0 Z " fill="#141414" transform="translate(671,528)"/>
<path d="M0 0 C9.81006556 4.15041235 16.71812455 14.18546381 20.65234375 23.78515625 C25.39869892 36.86858746 26.55921182 49.12398734 23.1875 62.6875 C22.93963745 63.693573 22.93963745 63.693573 22.68676758 64.7199707 C21.6943379 68.38658971 20.52282633 71.14465215 18 74 C18.60745496 70.67697193 19.44190769 67.5808069 20.53125 64.38671875 C22.21984493 58.82156291 22.53863051 53.60365298 22.5 47.8125 C22.49427979 46.80872314 22.48855957 45.80494629 22.48266602 44.77075195 C22.06061468 27.05170123 14.59170289 15.01830336 1.94140625 2.93359375 C1.30074219 2.29550781 0.66007813 1.65742187 0 1 C0 0.67 0 0.34 0 0 Z " fill="#444444" transform="translate(747,528)"/>
<path d="M0 0 C3.40624736 1.20866842 5.10139056 2.96222489 7 6 C7 6.66 7 7.32 7 8 C6.34 8 5.68 8 5 8 C4.938125 8.61875 4.87625 9.2375 4.8125 9.875 C4.544375 10.57625 4.27625 11.2775 4 12 C1.44921875 13.1328125 1.44921875 13.1328125 -1 14 C-1.39832031 13.39671875 -1.79664063 12.7934375 -2.20703125 12.171875 C-2.73683594 11.37265625 -3.26664062 10.5734375 -3.8125 9.75 C-4.33457031 8.96109375 -4.85664063 8.1721875 -5.39453125 7.359375 C-6.87134122 5.18907519 -8.40689873 3.08586232 -10 1 C-7.33333333 1 -4.66666667 1 -2 1 C-1.34 0.67 -0.68 0.34 0 0 Z " fill="#191A16" transform="translate(497,533)"/>
<path d="M0 0 C15.18 0 30.36 0 46 0 C46 0.33 46 0.66 46 1 C45.28972656 1.04898437 44.57945312 1.09796875 43.84765625 1.1484375 C42.46900391 1.26058594 42.46900391 1.26058594 41.0625 1.375 C40.14597656 1.44460938 39.22945313 1.51421875 38.28515625 1.5859375 C37.53105469 1.72257812 36.77695312 1.85921875 36 2 C35.67 2.66 35.34 3.32 35 4 C34.236875 3.814375 33.47375 3.62875 32.6875 3.4375 C29.91032625 2.77180827 29.91032625 2.77180827 27 4 C27 3.34 27 2.68 27 2 C25.35 2.66 23.7 3.32 22 4 C21.67 3.67 21.34 3.34 21 3 C20.67 3.66 20.34 4.32 20 5 C19.34 4.67 18.68 4.34 18 4 C14.23375329 2.74458443 12.62811066 3.62938042 9 5 C8.608125 4.484375 8.21625 3.96875 7.8125 3.4375 C7.214375 2.963125 6.61625 2.48875 6 2 C3.34533951 2.23043864 3.34533951 2.23043864 1 3 C0.67 2.01 0.34 1.02 0 0 Z " fill="#0C0B08" transform="translate(387,505)"/>
<path d="M0 0 C0.33 0 0.66 0 1 0 C1.38519778 5.15090061 -0.23411126 7.23459738 -3.33984375 11.140625 C-5.3544869 13.39702533 -7.58401155 15.18800866 -10 17 C-10.66 17.99 -11.32 18.98 -12 20 C-12.66 20 -13.32 20 -14 20 C-14.33 20.99 -14.66 21.98 -15 23 C-16.95890881 24.39300182 -18.9639118 25.72245446 -21 27 C-21.61875 27.556875 -22.2375 28.11375 -22.875 28.6875 C-26.11904713 30.69117617 -29.221889 30.68515742 -33 31 C-30.87503084 28.67045307 -28.96438904 27.39647711 -26.125 26.0625 C-15.89050819 20.50281684 -7.81777795 11.54408989 -1.390625 1.984375 C-0.70226562 1.00210937 -0.70226562 1.00210937 0 0 Z " fill="#18130F" transform="translate(773,456)"/>
<path d="M0 0 C0.33 0 0.66 0 1 0 C3.15730937 9.28350344 3.55919771 19.45740729 -1.3828125 27.84765625 C-5.77452467 33.69266448 -11.01393753 37.80829413 -18 40 C-18.99 39.67 -19.98 39.34 -21 39 C-17.9793983 36.91434644 -15.21753273 35.10006506 -11.875 33.5625 C-7.11289185 30.97439774 -4.48181516 26.72726697 -2 22 C-0.80509602 17.60531959 -0.91879279 13.26512107 -1 8.75 C-1.0455931 6.16031188 -1.04732509 3.59104894 -1 1 C-0.67 0.67 -0.34 0.34 0 0 Z " fill="#10100F" transform="translate(740,565)"/>
<path d="M0 0 C0 0.99 0 1.98 0 3 C-1.35546875 4.2890625 -1.35546875 4.2890625 -3.1875 5.625 C-8.20587485 9.68652447 -10.97761709 14.93285128 -13 21 C-13.73346184 30.81791058 -14.19655021 39.77883438 -8 48 C-5.80150128 50.50737871 -3.51490087 52.81123902 -1 55 C-4.53364173 55 -4.92189321 54.55735656 -7.375 52.1875 C-13.51979305 45.66436512 -16.28291415 38.83131759 -16.4375 29.875 C-16.33017347 27.5812074 -16.18776961 25.28861225 -16 23 C-15.96261719 22.17371094 -15.92523437 21.34742188 -15.88671875 20.49609375 C-14.98255485 12.9523979 -9.28303681 8.01970787 -4 3 C-2.68870376 1.97127265 -1.36389474 0.95789817 0 0 Z " fill="#444444" transform="translate(695,546)"/>
<path d="M0 0 C16.5 0 33 0 50 0 C50 8.58 50 17.16 50 26 C49.34 26 48.68 26 48 26 C47.67 18.08 47.34 10.16 47 2 C45.68 2.33 44.36 2.66 43 3 C41.65566584 2.71424737 40.32091273 2.37957667 39 2 C37.65789145 1.89174894 36.31193981 1.82527136 34.96582031 1.79467773 C33.79505951 1.7647599 33.79505951 1.7647599 32.60064697 1.73423767 C31.76821472 1.71752518 30.93578247 1.70081268 30.078125 1.68359375 C29.21813904 1.66281265 28.35815308 1.64203156 27.47210693 1.62062073 C24.73148402 1.55536261 21.99076725 1.49635083 19.25 1.4375 C17.3893133 1.39429219 15.52863602 1.35067718 13.66796875 1.30664062 C9.11207477 1.19970558 4.5560866 1.09837149 0 1 C0 0.67 0 0.34 0 0 Z " fill="#565554" transform="translate(336,518)"/>
<path d="M0 0 C3.16525653 0.62005746 6.10007243 0.64363284 9.32519531 0.62890625 C11.19594727 0.62407227 11.19594727 0.62407227 13.10449219 0.61914062 C14.39806641 0.61076172 15.69164062 0.60238281 17.02441406 0.59375 C18.33732422 0.58923828 19.65023437 0.58472656 21.00292969 0.58007812 C24.23930416 0.56830949 27.47558584 0.5518676 30.71191406 0.53125 C30.38191406 1.19125 30.05191406 1.85125 29.71191406 2.53125 C1.49691406 3.02625 1.49691406 3.02625 -27.28808594 3.53125 C-27.28808594 2.87125 -27.28808594 2.21125 -27.28808594 1.53125 C-25.46083984 1.44037109 -25.46083984 1.44037109 -23.59667969 1.34765625 C-21.97297317 1.26318597 -20.34927572 1.17854128 -18.72558594 1.09375 C-17.52579102 1.03477539 -17.52579102 1.03477539 -16.30175781 0.97460938 C-12.64746018 0.78070787 -9.13148063 0.5064717 -5.51074219 -0.06640625 C-2.28808594 -0.46875 -2.28808594 -0.46875 0 0 Z " fill="#A88054" transform="translate(620.2880859375,501.46875)"/>
<path d="M0 0 C6.4229243 -0.02543538 12.84583553 -0.04290272 19.26879883 -0.05493164 C21.452072 -0.05994843 23.63534182 -0.06676337 25.81860352 -0.07543945 C28.96371283 -0.08762147 32.10877757 -0.09325497 35.25390625 -0.09765625 C36.2239711 -0.10281754 37.19403595 -0.10797882 38.1934967 -0.11329651 C43.24174356 -0.11371077 48.02475387 0.1312108 53 1 C53.66 2.98 54.32 4.96 55 7 C52.69 7 50.38 7 48 7 C48 6.01 48 5.02 48 4 C47.03578125 3.93941406 46.0715625 3.87882812 45.078125 3.81640625 C43.81484375 3.73261719 42.5515625 3.64882813 41.25 3.5625 C39.37054688 3.44068359 39.37054688 3.44068359 37.453125 3.31640625 C34 3 34 3 32.21875 2.5 C29.15544675 1.80967814 26.18443513 1.77665697 23.046875 1.68359375 C22.05654266 1.6524221 22.05654266 1.6524221 21.04620361 1.62062073 C18.94756985 1.55549853 16.84881628 1.49641498 14.75 1.4375 C13.32290453 1.39427921 11.89582095 1.3506638 10.46875 1.30664062 C6.97929278 1.19985589 3.48970247 1.09848434 0 1 C0 0.67 0 0.34 0 0 Z " fill="#D3B082" transform="translate(408,471)"/>
<path d="M0 0 C-0.9590625 0.433125 -0.9590625 0.433125 -1.9375 0.875 C-4.15206079 1.82823451 -4.15206079 1.82823451 -5 4 C-5.12221229 6.5317239 -5.18564445 9.03778521 -5.20532227 11.57080078 C-5.21522186 12.35137848 -5.22512146 13.13195618 -5.23532104 13.93618774 C-5.26696978 16.52253155 -5.29170676 19.10889375 -5.31640625 21.6953125 C-5.33697287 23.48607874 -5.35796926 25.27684008 -5.37937927 27.06759644 C-5.43463013 31.78578743 -5.4840261 36.50402245 -5.53222656 41.22229004 C-5.5824196 46.03495207 -5.63811712 50.84755 -5.69335938 55.66015625 C-5.80097781 65.1067161 -5.90241459 74.55333156 -6 84 C-6.33 84 -6.66 84 -7 84 C-7 56.28 -7 28.56 -7 0 C-3.86650268 -1.04449911 -3.01031744 -0.93423645 0 0 Z " fill="#101110" transform="translate(356,548)"/>
<path d="M0 0 C0.33 0 0.66 0 1 0 C1 6.93 1 13.86 1 21 C10.24 21 19.48 21 29 21 C29 21.33 29 21.66 29 22 C18.77 22 8.54 22 -2 22 C-2.226875 19.298125 -2.45375 16.59625 -2.6875 13.8125 C-2.76701904 12.97050049 -2.84653809 12.12850098 -2.9284668 11.26098633 C-3.25771109 6.62123386 -3.06944249 3.78185631 0 0 Z " fill="#141414" transform="translate(537,610)"/>
<path d="M0 0 C-1.17122569 3.51367708 -1.747881 3.68883778 -4.8125 5.5 C-9.74130589 8.62210534 -13.82806977 12.36140659 -18.01293945 16.39257812 C-21.80185506 20 -21.80185506 20 -24 20 C-21.40686083 11.9371793 -8.90484962 0 0 0 Z " fill="#13110E" transform="translate(565,514)"/>
<path d="M0 0 C-0.625 1.875 -0.625 1.875 -2 4 C-5.125 5.25 -5.125 5.25 -8 6 C-8 5.34 -8 4.68 -8 4 C-8.99 4.66 -9.98 5.32 -11 6 C-13.26171875 6.1953125 -13.26171875 6.1953125 -15.6875 6.125 C-16.49574219 6.10695313 -17.30398438 6.08890625 -18.13671875 6.0703125 C-19.05904297 6.03550781 -19.05904297 6.03550781 -20 6 C-20 5.01 -20 4.02 -20 3 C-13.36857149 0.51321431 -7.05292315 -0.17632308 0 0 Z " fill="#070807" transform="translate(594,506)"/>
<path d="M0 0 C0.99 0.33 1.98 0.66 3 1 C3.7393718 11.61820053 1.45782783 20.46644179 -5 29 C-5.99 28.67 -6.98 28.34 -8 28 C-7.04200144 24.25509655 -6.34978463 22.3156593 -3.4375 19.6875 C-0.05444274 15.95746251 -0.09716314 12.89054486 0 8 C0.02320313 6.83210937 0.02320313 6.83210937 0.046875 5.640625 C0.06020994 3.76039903 0.03418114 1.87996254 0 0 Z " fill="#12120F" transform="translate(475,569)"/>
<path d="M0 0 C9.9 0 19.8 0 30 0 C26.01653091 3.98346909 19.09058817 3.12834705 13.72851562 3.13671875 C12.47071289 3.13091797 12.47071289 3.13091797 11.1875 3.125 C10.32962891 3.12886719 9.47175781 3.13273438 8.58789062 3.13671875 C7.76869141 3.13542969 6.94949219 3.13414062 6.10546875 3.1328125 C5.36449951 3.13168457 4.62353027 3.13055664 3.86010742 3.12939453 C2 3 2 3 0 2 C0 1.34 0 0.68 0 0 Z " fill="#4C4C4C" transform="translate(538,556)"/>
<path d="M0 0 C0.66 0.66 1.32 1.32 2 2 C1.7109375 3.87890625 1.7109375 3.87890625 1 6 C0.78601563 6.64839844 0.57203125 7.29679687 0.3515625 7.96484375 C-0.00808594 8.94130859 -0.00808594 8.94130859 -0.375 9.9375 C-0.60960937 10.58589844 -0.84421875 11.23429687 -1.0859375 11.90234375 C-2.18549122 14.42567858 -3.54187681 16.66491489 -5 19 C-5.60457031 19.969375 -6.20914063 20.93875 -6.83203125 21.9375 C-10.41760858 27.48206139 -13.56173659 32.19321561 -19 36 C-19.66 35.67 -20.32 35.34 -21 35 C-20.05640625 34.06994141 -20.05640625 34.06994141 -19.09375 33.12109375 C-9.87723707 23.58533413 -3.6070598 12.85015052 0 0 Z " fill="#775937" transform="translate(770,409)"/>
<path d="M0 0 C0 0.66 0 1.32 0 2 C-5.07939462 3.94477629 -9.94714536 4.63246331 -15.3125 5.1875 C-16.13556641 5.28224609 -16.95863281 5.37699219 -17.80664062 5.47460938 C-19.86653097 5.69707074 -21.93325878 5.85433591 -24 6 C-24.33 5.67 -24.66 5.34 -25 5 C-27.32817964 4.63239269 -29.6618385 4.29758419 -32 4 C-32 3.67 -32 3.34 -32 3 C-30.70964844 2.86722656 -29.41929687 2.73445313 -28.08984375 2.59765625 C-26.37238852 2.41934123 -24.65494101 2.24095187 -22.9375 2.0625 C-21.66616211 1.93198242 -21.66616211 1.93198242 -20.36914062 1.79882812 C-16.59713343 1.4056073 -12.84832385 0.97815863 -9.09375 0.4375 C-6.0190559 0.00269477 -3.10065566 -0.07562575 0 0 Z " fill="#B38E66" transform="translate(705,467)"/>
<path d="M0 0 C0.33 0 0.66 0 1 0 C0.51131299 9.77374011 -2.80844918 19.31393691 -9 27 C-9.66 27 -10.32 27 -11 27 C-9.125 23.125 -9.125 23.125 -8 22 C-7.63239269 19.67182036 -7.29758419 17.3381615 -7 15 C-6.34 15 -5.68 15 -5 15 C-5.185625 14.401875 -5.37125 13.80375 -5.5625 13.1875 C-6 11 -6 11 -5 8 C-4.01 8 -3.02 8 -2 8 C-1.855625 7.236875 -1.71125 6.47375 -1.5625 5.6875 C-1 3 -1 3 0 0 Z " fill="#0F100E" transform="translate(770,403)"/>
<path d="M0 0 C4.31326043 7.7507486 3.99230496 19.42437155 2.15625 27.890625 C-0.28836936 34.50363379 -3.76979089 40.37425798 -8 46 C-8 42.62081089 -7.29287319 41.41713831 -5.6875 38.5 C0.68813247 25.82118543 0.35924205 13.92201097 0 0 Z " fill="#8B6847" transform="translate(501,566)"/>
<path d="M0 0 C0.33 0.99 0.66 1.98 1 3 C-3.30423457 8.93286386 -8.80286618 14.06287703 -15 18 C-16.32 18 -17.64 18 -19 18 C-18.9375 16.1875 -18.9375 16.1875 -18 14 C-16.948125 13.5771875 -15.89625 13.154375 -14.8125 12.71875 C-10.66243437 11.04611408 -8.07956165 8.54655641 -5.0625 5.3125 C-4.56943359 4.80138672 -4.07636719 4.29027344 -3.56835938 3.76367188 C-2.3694227 2.51817455 -1.18331517 1.26034834 0 0 Z " fill="#0B0A0B" transform="translate(760,611)"/>
<path d="M0 0 C-2.36198314 2.80533273 -4.09997158 3.48241299 -7.6875 4.0625 C-10.99711507 4.63345699 -14.20150023 5.28861118 -17.4375 6.1875 C-21 7 -21 7 -24 6 C-24 5.01 -24 4.02 -24 3 C-23.14277344 2.87882812 -22.28554688 2.75765625 -21.40234375 2.6328125 C-14.08284038 1.62457531 -14.08284038 1.62457531 -6.9375 -0.1875 C-4.04982549 -0.98621848 -2.74193222 -1.09677289 0 0 Z " fill="#090806" transform="translate(717,499)"/>
<path d="M0 0 C0.99 0 1.98 0 3 0 C6.38109893 9.79613038 8.16644633 18.63761629 7 29 C6.34 29.66 5.68 30.32 5 31 C4.96132813 29.49373047 4.96132813 29.49373047 4.921875 27.95703125 C4.60849883 19.59142869 3.61032142 12.42319953 0.83984375 4.4765625 C0 2 0 2 0 0 Z " fill="#A6835E" transform="translate(498,555)"/>
<path d="M0 0 C16.8929385 -0.18451025 16.8929385 -0.18451025 24 1 C23.67 1.99 23.34 2.98 23 4 C19.9163358 3.86068862 16.83316583 3.71240719 13.75 3.5625 C12.87730469 3.52318359 12.00460937 3.48386719 11.10546875 3.44335938 C10.26113281 3.40146484 9.41679687 3.35957031 8.546875 3.31640625 C7.77182617 3.27974854 6.99677734 3.24309082 6.19824219 3.20532227 C4.0425024 3.00396985 2.08198525 2.58270703 0 2 C0 1.34 0 0.68 0 0 Z " fill="#A0794F" transform="translate(433,502)"/>
<path d="M0 0 C2.91732526 0.62423117 4.67637394 1.3757633 7.375 2.875 C17.98822542 8.2599391 30.32936256 8.56045651 42 9 C39.48491728 11.51508272 37.83035133 11.30820046 34.38916016 11.38037109 C21.14077805 11.34894297 11.42228243 7.74544238 0 1 C0 0.67 0 0.34 0 0 Z " fill="#1E140A" transform="translate(414,625)"/>
<path d="M0 0 C0.66 0 1.32 0 2 0 C-0.65903501 8.01953645 -7.88289756 13.80273446 -15 18 C-15.66 17.67 -16.32 17.34 -17 17 C-16.07347299 15.82460004 -15.13336613 14.65989423 -14.1875 13.5 C-13.66542969 12.8503125 -13.14335938 12.200625 -12.60546875 11.53125 C-11 10 -11 10 -8 10 C-8 9.01 -8 8.02 -8 7 C-7.01 7 -6.02 7 -5 7 C-4.896875 6.360625 -4.79375 5.72125 -4.6875 5.0625 C-4.460625 4.381875 -4.23375 3.70125 -4 3 C-3.01 2.67 -2.02 2.34 -1 2 C-0.67 1.34 -0.34 0.68 0 0 Z " fill="#141411" transform="translate(756,433)"/>
<path d="M0 0 C0.66 0 1.32 0 2 0 C2.33 7.59 2.66 15.18 3 23 C2.01 23 1.02 23 0 23 C-1.66895458 14.80928447 -2.37321711 8.08719369 0 0 Z " fill="#0C0C0C" transform="translate(649,563)"/>
<path d="M0 0 C0 0.33 0 0.66 0 1 C-0.73863281 1.03738281 -1.47726562 1.07476563 -2.23828125 1.11328125 C-11.16042366 1.69146329 -19.74629531 2.46979952 -27 8 C-30.25 8.6875 -30.25 8.6875 -33 9 C-24.85748401 -0.30960995 -11.35264449 -1.37946748 0 0 Z " fill="#A5845C" transform="translate(446,518)"/>
<path d="M0 0 C0.99 0.495 0.99 0.495 2 1 C4.31385316 1.14356361 6.63155947 1.22663824 8.94921875 1.28125 C9.98548149 1.30886414 9.98548149 1.30886414 11.04267883 1.33703613 C13.25753199 1.39581973 15.47246514 1.44854907 17.6875 1.5 C19.88467292 1.55165275 22.08175235 1.60478904 24.27876282 1.66296387 C26.28559559 1.71607382 28.29257737 1.76346223 30.29956055 1.81054688 C33.9427805 1.99707051 37.4022474 2.42607902 41 3 C41 3.66 41 4.32 41 5 C39.783125 5.020625 38.56625 5.04125 37.3125 5.0625 C36.28576172 5.07990234 36.28576172 5.07990234 35.23828125 5.09765625 C33 5 33 5 30.7734375 4.51367188 C27.61768263 3.92919051 24.59453534 3.7861267 21.38671875 3.68359375 C20.13955078 3.64169922 18.89238281 3.59980469 17.60742188 3.55664062 C16.31384766 3.51732422 15.02027344 3.47800781 13.6875 3.4375 C12.37458984 3.39431641 11.06167969 3.35113281 9.70898438 3.30664062 C6.47275712 3.20072773 3.23645542 3.09865115 0 3 C0 2.01 0 1.02 0 0 Z " fill="#775939" transform="translate(405,532)"/>
<path d="M0 0 C0.33 0.99 0.66 1.98 1 3 C-1.5602139 7.71079358 -4.6323812 10.91697497 -9 14 C-10.2375 14.350625 -11.475 14.70125 -12.75 15.0625 C-16.09496389 15.65156463 -16.09496389 15.65156463 -17.4375 18.125 C-17.623125 18.74375 -17.80875 19.3625 -18 20 C-18.66 19.67 -19.32 19.34 -20 19 C-20 18.01 -20 17.02 -20 16 C-19.20335937 15.64808594 -18.40671875 15.29617188 -17.5859375 14.93359375 C-9.36774614 11.10443646 -4.94770493 7.4215574 0 0 Z " fill="#100F0F" transform="translate(638,575)"/>
<path d="M0 0 C0.33 0 0.66 0 1 0 C2.0096534 4.20015816 2.16593207 8.18641435 2.1875 12.5 C2.20167969 13.7890625 2.21585938 15.078125 2.23046875 16.40625 C2.0146557 19.77147046 1.46189261 21.99531954 0 25 C-0.99 24.67 -1.98 24.34 -3 24 C-2.67128906 23.01773438 -2.34257813 22.03546875 -2.00390625 21.0234375 C-0.80796813 16.8402883 -0.80622851 12.94502553 -0.9375 8.625 C-0.9987745 6.07870425 -1.02078789 3.5480015 -1 1 C-0.67 0.67 -0.34 0.34 0 0 Z " fill="#070706" transform="translate(740,565)"/>
<path d="M0 0 C1.66666667 3.33333333 3.33333333 6.66666667 5 10 C5.43054688 10.83789062 5.86109375 11.67578125 6.3046875 12.5390625 C6.98917969 13.88097656 6.98917969 13.88097656 7.6875 15.25 C8.34298828 16.52617188 8.34298828 16.52617188 9.01171875 17.828125 C10 20 10 20 10 22 C10.66 22 11.32 22 12 22 C11.67 23.32 11.34 24.64 11 26 C2 13.15533981 2 13.15533981 2 7 C1.01 7 0.02 7 -1 7 C-0.67 4.69 -0.34 2.38 0 0 Z " fill="#1D150A" transform="translate(388,587)"/>
<path d="M0 0 C0.33 0 0.66 0 1 0 C1.38472821 5.1446214 -0.22080113 7.2360448 -3.34375 11.125 C-5.39209156 13.44387724 -7.36581496 15.36253362 -10 17 C-10.99 16.67 -11.98 16.34 -13 16 C-12.39671875 15.34773438 -11.7934375 14.69546875 -11.171875 14.0234375 C-7.05534888 9.521817 -3.25581759 5.15504452 0 0 Z " fill="#0D0B0A" transform="translate(773,456)"/>
<path d="M0 0 C2.31 0 4.62 0 7 0 C7.33 0.66 7.66 1.32 8 2 C-0.04308131 5.06606823 -7.39208128 6.69475466 -16 7 C-12.59141414 3.59141414 -7.67798535 3.06991606 -3 2.875 C-2.34 2.91625 -1.68 2.9575 -1 3 C-0.67 2.01 -0.34 1.02 0 0 Z " fill="#5C4126" transform="translate(710,495)"/>
<path d="M0 0 C0.66 0.33 1.32 0.66 2 1 C1.38253906 1.47308594 0.76507812 1.94617188 0.12890625 2.43359375 C-6.02518022 7.23883935 -11.59930296 12.36449005 -17 18 C-17.33 17.01 -17.66 16.02 -18 15 C-12.45946696 9.10581592 -6.93860929 4.18284957 0 0 Z " fill="#B28D5F" transform="translate(547,483)"/>
<path d="M0 0 C2 3 2 3 2 7 C2.66 7.33 3.32 7.66 4 8 C3.01 8.66 2.02 9.32 1 10 C-1.64 7.69 -4.28 5.38 -7 3 C-2.5 0 -2.5 0 0 0 Z " fill="#20211C" transform="translate(485,524)"/>
<path d="M0 0 C3.58091264 3.58091264 3.9532033 8.05002694 4.1953125 12.96484375 C4.16050781 14.93130859 4.16050781 14.93130859 4.125 16.9375 C4.11146484 17.96327148 4.11146484 17.96327148 4.09765625 19.00976562 C4.07438958 20.67333287 4.03853167 22.33671631 4 24 C3.67 24 3.34 24 3 24 C2.87882813 23.09378906 2.75765625 22.18757812 2.6328125 21.25390625 C1.49055066 12.92245241 1.49055066 12.92245241 -0.1875 4.6875 C-0.455625 3.470625 -0.72375 2.25375 -1 1 C-0.67 0.67 -0.34 0.34 0 0 Z " fill="#5E5E5E" transform="translate(638,538)"/>
<path d="M0 0 C4.16138263 -0.08159574 7.9472484 0.01751476 12 1 C12 2.65 12 4.3 12 6 C13.32 6.66 14.64 7.32 16 8 C12.38240416 8 11.04301049 7.01782498 8 5.125 C7.13375 4.59132813 6.2675 4.05765625 5.375 3.5078125 C3.56880278 2.36111492 1.78013339 1.18675559 0 0 Z " fill="#7E5D3D" transform="translate(471,511)"/>
<path d="M0 0 C0.75410156 0.04833984 1.50820313 0.09667969 2.28515625 0.14648438 C3.45111328 0.2305957 3.45111328 0.2305957 4.640625 0.31640625 C5.82978516 0.3947168 5.82978516 0.3947168 7.04296875 0.47460938 C8.99256497 0.60379949 10.94165386 0.7406059 12.890625 0.87890625 C10.55848352 2.08518633 8.39420361 3.04438005 5.890625 3.87890625 C5.890625 3.21890625 5.890625 2.55890625 5.890625 1.87890625 C4.900625 2.20890625 3.910625 2.53890625 2.890625 2.87890625 C1.16267148 2.94693592 -0.56772865 2.9638627 -2.296875 2.94140625 C-3.19792969 2.93238281 -4.09898437 2.92335938 -5.02734375 2.9140625 C-5.71441406 2.90246094 -6.40148437 2.89085937 -7.109375 2.87890625 C-7.439375 2.21890625 -7.769375 1.55890625 -8.109375 0.87890625 C-5.27553392 0.05375841 -2.94002249 -0.20045608 0 0 Z " fill="#D4B285" transform="translate(589.109375,471.12109375)"/>
<path d="M0 0 C1.53760842 3.07521683 0.36599236 5.34675118 -0.4375 8.625 C-0.72496094 9.81351563 -1.01242187 11.00203125 -1.30859375 12.2265625 C-1.65083984 13.59941406 -1.65083984 13.59941406 -2 15 C-3.32 15.33 -4.64 15.66 -6 16 C-5.57764318 13.70549415 -5.13663083 11.41441562 -4.6875 9.125 C-4.44386719 7.84882812 -4.20023437 6.57265625 -3.94921875 5.2578125 C-3 2 -3 2 0 0 Z " fill="#100E0C" transform="translate(390,553)"/>
<path d="M0 0 C0.33 0 0.66 0 1 0 C1.05791844 3.12492251 1.09356746 6.24970766 1.125 9.375 C1.14175781 10.26445313 1.15851562 11.15390625 1.17578125 12.0703125 C1.18222656 12.92109375 1.18867187 13.771875 1.1953125 14.6484375 C1.20578613 15.43395996 1.21625977 16.21948242 1.22705078 17.02880859 C1 19 1 19 -1 21 C-1.22212255 18.25048307 -1.42815588 15.50134388 -1.625 12.75 C-1.68945312 11.97269531 -1.75390625 11.19539062 -1.8203125 10.39453125 C-2.30707097 3.27568856 -2.30707097 3.27568856 0 0 Z " fill="#090809" transform="translate(536,611)"/>
<path d="M0 0 C0.33 0 0.66 0 1 0 C0.85845864 2.56280208 0.71191438 5.12515485 0.5625 7.6875 C0.50352539 8.7693457 0.50352539 8.7693457 0.44335938 9.87304688 C0.21814322 13.66707282 -0.12839305 17.28651492 -1 21 C-1.66 21 -2.32 21 -3 21 C-2.22095672 6.21867882 -2.22095672 6.21867882 0 0 Z " fill="#453019" transform="translate(390,555)"/>
<path d="M0 0 C4 8 4 8 4 13 C2.02 13.99 2.02 13.99 0 15 C0 10.05 0 5.1 0 0 Z " fill="#765733" transform="translate(773,385)"/>
<path d="M0 0 C0.66 0.66 1.32 1.32 2 2 C1.70703125 3.87109375 1.70703125 3.87109375 1 6 C0.79761719 6.67160156 0.59523438 7.34320313 0.38671875 8.03515625 C-1.02734773 12.13515907 -2.0158811 14.80186543 -6 17 C-4.14506608 11.28062041 -2.06896109 5.64444725 0 0 Z " fill="#64492E" transform="translate(770,409)"/>
<path d="M0 0 C0.33 0 0.66 0 1 0 C1.65930781 9.90426838 0.54230933 17.14249681 -4 26 C-4.66 26 -5.32 26 -6 26 C-5.731875 25.360625 -5.46375 24.72125 -5.1875 24.0625 C-4.795625 23.051875 -4.40375 22.04125 -4 21 C-3.74734375 20.36835937 -3.4946875 19.73671875 -3.234375 19.0859375 C-0.89927565 12.79032651 -0.32776365 6.6795972 0 0 Z " fill="#442F1A" transform="translate(478,569)"/>
<path d="M0 0 C0.99 0.33 1.98 0.66 3 1 C-2.96583144 8.66742597 -2.96583144 8.66742597 -8 10 C-6.56854369 4.98990293 -4.17048478 2.89380576 0 0 Z " fill="#10100E" transform="translate(428,550)"/>
<path d="M0 0 C-1.72718516 0.96189997 -3.45684058 1.91936508 -5.1875 2.875 C-6.15042969 3.40867187 -7.11335937 3.94234375 -8.10546875 4.4921875 C-10.69739518 5.8423678 -13.26761098 6.97098329 -16 8 C-16 7.01 -16 6.02 -16 5 C-13.90163996 3.96728358 -11.79609109 2.94916283 -9.6875 1.9375 C-8.51574219 1.36902344 -7.34398437 0.80054688 -6.13671875 0.21484375 C-3 -1 -3 -1 0 0 Z " fill="#0A0907" transform="translate(739,490)"/>
<path d="M0 0 C0.99 0.33 1.98 0.66 3 1 C3.05449838 2.72880982 3.09301688 4.45812712 3.125 6.1875 C3.14820313 7.15042969 3.17140625 8.11335937 3.1953125 9.10546875 C2.9913544 12.12812778 2.26874632 14.26769985 1 17 C0.67 17 0.34 17 0 17 C0 11.39 0 5.78 0 0 Z " fill="#0B0A08" transform="translate(475,569)"/>
<path d="M0 0 C1.82421875 0.1953125 1.82421875 0.1953125 4 1 C5.51953125 3.1796875 5.51953125 3.1796875 6.8125 5.875 C7.47185547 7.20144531 7.47185547 7.20144531 8.14453125 8.5546875 C9 11 9 11 8 14 C7.03980636 12.41779413 6.08192202 10.83418669 5.125 9.25 C4.59132813 8.36828125 4.05765625 7.4865625 3.5078125 6.578125 C2.24403334 4.41725907 1.08501165 2.25429605 0 0 Z " fill="#BD9A6F" transform="translate(491,542)"/>
<path d="M0 0 C1.65 0 3.3 0 5 0 C2.62999752 2.65845673 0.18015846 4.11161791 -3 5.6875 C-3.86625 6.12449219 -4.7325 6.56148437 -5.625 7.01171875 C-8 8 -8 8 -11 8 C-8.76224766 4.6433715 -8.06679952 4.42003986 -4.375 3.3125 C-3.55773437 3.06113281 -2.74046875 2.80976562 -1.8984375 2.55078125 C-1.27195312 2.36902344 -0.64546875 2.18726563 0 2 C0 1.34 0 0.68 0 0 Z " fill="#161615" transform="translate(685,518)"/>
<path d="M0 0 C0.66 0.33 1.32 0.66 2 1 C2.05386629 3.12472576 2.09273071 5.24983652 2.125 7.375 C2.14820313 8.55835938 2.17140625 9.74171875 2.1953125 10.9609375 C2 14 2 14 0 16 C-0.19672365 14.27185839 -0.38196799 12.54240803 -0.5625 10.8125 C-0.71912109 9.36810547 -0.71912109 9.36810547 -0.87890625 7.89453125 C-0.99758751 5.05766623 -0.67765639 2.74576329 0 0 Z " fill="#0A0B0A" transform="translate(279,518)"/>
<path d="M0 0 C0 0.66 0 1.32 0 2 C-4.17737474 3.59138085 -7.53160785 4.21278058 -12 4 C-12.33 3.01 -12.66 2.02 -13 1 C-8.61414671 0.29826347 -4.44209357 -0.10834375 0 0 Z " fill="#A8835C" transform="translate(705,467)"/>
<path d="M0 0 C0.99 0 1.98 0 3 0 C2.00956295 4.83628305 1.04301154 9.47618873 -1 14 C-1.33 14 -1.66 14 -2 14 C-2 11.36 -2 8.72 -2 6 C-1.34 6 -0.68 6 0 6 C0 4.02 0 2.04 0 0 Z " fill="#12110E" transform="translate(259,390)"/>
<path d="M0 0 C2.9926822 1.4963411 3.35580633 3.70690407 4.625 6.75 C5.07101562 7.79671875 5.51703125 8.8434375 5.9765625 9.921875 C6.95178316 12.8549814 7.2151048 14.94324763 7 18 C4.32605002 14.82803641 3.07468783 11.81147851 1.8125 7.875 C1.46832031 6.82054687 1.12414062 5.76609375 0.76953125 4.6796875 C0 2 0 2 0 0 Z " fill="#A08460" transform="translate(772,380)"/>
<path d="M0 0 C1.98 0 3.96 0 6 0 C5.52575143 4.26823714 3.04238597 6.17492731 0 9 C-0.8971875 9.8971875 -0.8971875 9.8971875 -1.8125 10.8125 C-2.204375 11.204375 -2.59625 11.59625 -3 12 C-3 7.9666466 -1.39120082 6.16482462 1 3 C1.66 3 2.32 3 3 3 C3 2.34 3 1.68 3 1 C2.01 0.67 1.02 0.34 0 0 Z " fill="#785736" transform="translate(422,548)"/>
<path d="M0 0 C3.33434242 1.4031723 5.05526479 2.96989805 7.1875 5.875 C7.95126953 6.89207031 7.95126953 6.89207031 8.73046875 7.9296875 C9.98995557 9.98361986 10.56190327 11.64588985 11 14 C6.45924219 9.85989729 3.28157862 5.17609824 0 0 Z " fill="#6A4C2D" transform="translate(496,529)"/>
<path d="M0 0 C2 1.375 2 1.375 4 3 C4 3.66 4 4.32 4 5 C4.86625 5.061875 4.86625 5.061875 5.75 5.125 C9.13312465 6.44065958 10.19222685 8.96552364 12 12 C11.67 12.66 11.34 13.32 11 14 C10.278125 13.113125 9.55625 12.22625 8.8125 11.3125 C7.03556807 9.16600673 5.25459543 7.27153645 3.25 5.3125 C1 3 1 3 0 0 Z " fill="#CDAC80" transform="translate(507,498)"/>
<path d="M0 0 C0 0.66 0 1.32 0 2 C-5.70985978 2.74016701 -11.24186425 3.10469338 -17 3 C-11.94682281 -0.36878479 -5.93922223 -0.14848056 0 0 Z " fill="#17120C" transform="translate(594,506)"/>
<path d="M0 0 C-1.65 1.98 -3.3 3.96 -5 6 C-5 5.01 -5 4.02 -5 3 C-7.31 3.33 -9.62 3.66 -12 4 C-10 1 -10 1 -8.25 0.3125 C-5.48083033 -0.0721069 -2.79197653 -0.06345401 0 0 Z " fill="#241B13" transform="translate(744,487)"/>
<path d="M0 0 C1.79258558 0.08693141 3.58415144 0.19510504 5.375 0.3125 C6.87160156 0.39951172 6.87160156 0.39951172 8.3984375 0.48828125 C9.25695312 0.65714844 10.11546875 0.82601563 11 1 C11.66 1.99 12.32 2.98 13 4 C9.81452856 5.59273572 7.39809153 4.76164121 4 4 C1.5625 1.9375 1.5625 1.9375 0 0 Z " fill="#D8B786" transform="translate(459,473)"/>
<path d="M0 0 C0.66 0.33 1.32 0.66 2 1 C0.56665422 2.62866544 -0.87182979 4.25280994 -2.3125 5.875 C-3.51326172 7.23238281 -3.51326172 7.23238281 -4.73828125 8.6171875 C-7 11 -7 11 -10 13 C-10 12.01 -10 11.02 -10 10 C-8.50618408 8.73350389 -7.00742495 7.47114473 -5.4609375 6.26953125 C-3.69121742 4.73167289 -2.91570077 3.13663512 -2 1 C-1.34 0.67 -0.68 0.34 0 0 Z " fill="#735334" transform="translate(766,463)"/>
<path d="M0 0 C2.97 0 5.94 0 9 0 C8.67 0.99 8.34 1.98 8 3 C5.36 3.33 2.72 3.66 0 4 C0 2.68 0 1.36 0 0 Z " fill="#050604" transform="translate(568,596)"/>
<path d="M0 0 C0.33 0 0.66 0 1 0 C1 5.28 1 10.56 1 16 C0.34 16 -0.32 16 -1 16 C-1.22197585 13.89722877 -1.42713637 11.79267698 -1.625 9.6875 C-1.74101563 8.51574219 -1.85703125 7.34398437 -1.9765625 6.13671875 C-2 3 -2 3 0 0 Z " fill="#543B22" transform="translate(520,578)"/>
<path d="M0 0 C0.66 0.33 1.32 0.66 2 1 C2 1.99 2 2.98 2 4 C1.0925 4.103125 0.185 4.20625 -0.75 4.3125 C-4.01961575 5.00414949 -5.53717737 5.82134921 -8 8 C-8.66 7.67 -9.32 7.34 -10 7 C-8.70982586 6.01886757 -7.41780894 5.04015801 -6.125 4.0625 C-5.04605469 3.24458984 -5.04605469 3.24458984 -3.9453125 2.41015625 C-2 1 -2 1 0 0 Z " fill="#0C0B0B" transform="translate(699,546)"/>
<path d="M0 0 C2 3 2 3 1.6796875 5.12109375 C0.11448177 9.62675878 -1.14018311 12.93876591 -5 16 C-3.41078475 10.63904723 -1.81027062 5.29156027 0 0 Z " fill="#141414" transform="translate(771,586)"/>
<path d="M0 0 C0.66 0.33 1.32 0.66 2 1 C0.68 3.97 -0.64 6.94 -2 10 C-2.99 10 -3.98 10 -5 10 C-3.66511872 6.40608886 -2.03977277 3.24509304 0 0 Z " fill="#151512" transform="translate(500,600)"/>
<path d="M0 0 C0.66 0.99 1.32 1.98 2 3 C0.68 5.64 -0.64 8.28 -2 11 C-2.66 10.67 -3.32 10.34 -4 10 C-2.8905928 6.51329166 -1.73662334 3.22515763 0 0 Z " fill="#23201C" transform="translate(534,542)"/>
<path d="M0 0 C-0.5775 0.268125 -1.155 0.53625 -1.75 0.8125 C-4.03400948 1.91841657 -4.03400948 1.91841657 -5.875 3.5625 C-8.53785234 5.36384129 -10.83835725 5.64072241 -14 6 C-11.86197902 3.67490219 -9.81401863 2.17832764 -7 0.75 C-6.319375 0.39421875 -5.63875 0.0384375 -4.9375 -0.328125 C-3 -1 -3 -1 0 0 Z " fill="#906E49" transform="translate(427,521)"/>
<path d="M0 0 C0.33 0 0.66 0 1 0 C1.33663062 3.70293685 1.47736015 5.39534381 -0.875 8.375 C-3 10 -3 10 -5 10 C-5 9.34 -5 8.68 -5 8 C-4.34 8 -3.68 8 -3 8 C-2.690625 6.865625 -2.38125 5.73125 -2.0625 4.5625 C-1 1 -1 1 0 0 Z " fill="#0E0D0E" transform="translate(610,559)"/>
<path d="M0 0 C5.28 0 10.56 0 16 0 C15.01 0.495 15.01 0.495 14 1 C13.67 1.66 13.34 2.32 13 3 C12.236875 2.814375 11.47375 2.62875 10.6875 2.4375 C7.91032625 1.77180827 7.91032625 1.77180827 5 3 C5 2.34 5 1.68 5 1 C3.35 1 1.7 1 0 1 C0 0.67 0 0.34 0 0 Z " fill="#040504" transform="translate(409,506)"/>
<path d="M0 0 C0.66 0 1.32 0 2 0 C3.60725635 3.21451269 3.05748185 6.43612536 3 10 C1.5 8.9375 1.5 8.9375 0 7 C-0.1875 3.3125 -0.1875 3.3125 0 0 Z " fill="#0E0C09" transform="translate(513,567)"/>
<path d="M0 0 C3.99500618 1.3697164 6.80009492 3.25722422 10 6 C9.67 6.99 9.34 7.98 9 9 C6 6 3 3 0 0 Z " fill="#C8A67A" transform="translate(474,525)"/>
<path d="M0 0 C0.33 0.66 0.66 1.32 1 2 C0.22265625 3.9453125 0.22265625 3.9453125 -0.9375 6.125 C-1.31777344 6.84945313 -1.69804688 7.57390625 -2.08984375 8.3203125 C-2.39019531 8.87460937 -2.69054687 9.42890625 -3 10 C-4.04296875 8.1328125 -4.04296875 8.1328125 -5 6 C-3.92886167 2.68920881 -2.98673647 1.99115765 0 0 Z " fill="#1C1916" transform="translate(778,449)"/>
<path d="M0 0 C0.6875 1.6875 0.6875 1.6875 1 4 C-0.4375 6.75 -0.4375 6.75 -2 9 C-2.66 8.67 -3.32 8.34 -4 8 C-3.34 6.35 -2.68 4.7 -2 3 C-2.66 2.67 -3.32 2.34 -4 2 C-2.68 1.34 -1.36 0.68 0 0 Z " fill="#735434" transform="translate(771,454)"/>
<path d="M0 0 C3.3 0.33 6.6 0.66 10 1 C9.67 1.66 9.34 2.32 9 3 C6.03 3 3.06 3 0 3 C0 2.01 0 1.02 0 0 Z " fill="#10100E" transform="translate(574,509)"/>
<path d="M0 0 C5.75 1.625 5.75 1.625 8 5 C6.35 5.33 4.7 5.66 3 6 C3 5.01 3 4.02 3 3 C1.56249809 1.31201173 1.56249809 1.31201173 0 0 Z " fill="#A98056" transform="translate(471,525)"/>
<path d="M0 0 C2.875 0.25 2.875 0.25 6 1 C7.375 3.0625 7.375 3.0625 8 5 C5 5 5 5 2.3125 2.5 C1.549375 1.675 0.78625 0.85 0 0 Z " fill="#DAB989" transform="translate(494,487)"/>
<path d="M0 0 C0.99 0 1.98 0 3 0 C3.33 2.31 3.66 4.62 4 7 C3.01 7.66 2.02 8.32 1 9 C0.67 6.03 0.34 3.06 0 0 Z " fill="#0A0907" transform="translate(256,433)"/>
<path d="M0 0 C2.31 0 4.62 0 7 0 C7.33 0.66 7.66 1.32 8 2 C3.545 2.495 3.545 2.495 -1 3 C-0.67 2.01 -0.34 1.02 0 0 Z " fill="#725030" transform="translate(710,495)"/>
<path d="M0 0 C0.99 0 1.98 0 3 0 C2.67 1.65 2.34 3.3 2 5 C1.01 5.33 0.02 5.66 -1 6 C-1.33 5.01 -1.66 4.02 -2 3 C-1.34 3 -0.68 3 0 3 C0 2.01 0 1.02 0 0 Z " fill="#262524" transform="translate(545,479)"/>
<path d="M0 0 C2.64 0 5.28 0 8 0 C7.01 1.485 7.01 1.485 6 3 C3.03 2.505 3.03 2.505 0 2 C0 1.34 0 0.68 0 0 Z " fill="#050506" transform="translate(575,545)"/>
<path d="M0 0 C1.98 1.65 3.96 3.3 6 5 C5.67 5.66 5.34 6.32 5 7 C0.125 4.375 0.125 4.375 -1 1 C-0.67 0.67 -0.34 0.34 0 0 Z " fill="#A9835A" transform="translate(485,535)"/>
<path d="M0 0 C0.99 0.33 1.98 0.66 3 1 C3.33 1.99 3.66 2.98 4 4 C1.69 4 -0.62 4 -3 4 C-2.01 2.68 -1.02 1.36 0 0 Z " fill="#CEA776" transform="translate(459,474)"/>
<path d="M0 0 C-0.33 0.66 -0.66 1.32 -1 2 C-3.32156597 2.40729228 -5.6568787 2.74438677 -8 3 C-8.33 2.34 -8.66 1.68 -9 1 C-5.8035914 -0.06546953 -3.34252724 -0.07427838 0 0 Z " fill="#9B7752" transform="translate(713,465)"/>
</svg>
